<svg width="40" height="40" viewBox="0 0 40 40" fill="none" xmlns="http://www.w3.org/2000/svg">
<g id="&#227;&#130;&#162;&#227;&#131;&#179;&#227;&#130;&#177;&#227;&#131;&#188;&#227;&#131;&#136;&#231;&#148;&#168;&#231;&#180;&#153;&#227;&#129;&#174;&#227;&#130;&#162;&#227;&#130;&#164;&#227;&#130;&#179;&#227;&#131;&#179;&#231;&#180;&#160;&#230;&#157;&#144; 1">
<g id="Group">
<path id="Vector" d="M35.1477 6.87133C34.8535 6.17555 34.3641 5.58711 33.7476 5.16969C33.1311 4.75344 32.3804 4.50805 31.582 4.50805H28.2495V3.93313H23.4192C23.4412 3.77688 23.4534 3.6157 23.4534 3.45336C23.4534 1.54906 21.9043 0 20 0C18.0957 0 16.5466 1.54906 16.5466 3.45336C16.5466 3.6157 16.5588 3.77688 16.5809 3.93313H11.7506V4.50805H8.41798C7.88571 4.50805 7.37431 4.61672 6.91165 4.8132C6.21587 5.10742 5.62626 5.59687 5.20876 6.21336C4.79251 6.83102 4.54712 7.58055 4.54712 8.37891V36.1304C4.54712 36.6602 4.65579 37.1729 4.85228 37.6367C5.14649 38.3325 5.63595 38.9209 6.25243 39.3384C6.87009 39.7559 7.61962 40 8.41798 40H31.582C32.1131 40 32.6257 39.8926 33.0884 39.6948C33.7854 39.4019 34.3738 38.9112 34.7913 38.2947C35.2075 37.6782 35.4529 36.9275 35.4529 36.1304V8.37891C35.4529 7.84672 35.3455 7.33523 35.1477 6.87133ZM20 2.17164C20.7068 2.17164 21.2817 2.74656 21.2817 3.45336C21.2817 3.62305 21.2475 3.78414 21.1877 3.93313H18.8134C18.7524 3.78422 18.7182 3.62305 18.7182 3.45336C18.7183 2.74656 19.2945 2.17164 20 2.17164ZM33.1506 36.1304C33.1506 36.3502 33.1066 36.5527 33.0274 36.7395C32.9102 37.0191 32.7099 37.2608 32.4585 37.4316C32.207 37.6001 31.9116 37.6977 31.582 37.6977H8.41798C8.19821 37.6977 7.99438 37.6537 7.80759 37.5756C7.52681 37.4572 7.28634 37.2558 7.11665 37.0055C6.94821 36.7541 6.85056 36.4587 6.84931 36.1303V8.37891C6.84931 8.15914 6.89329 7.95531 6.97259 7.76852C7.09103 7.48773 7.29118 7.24602 7.54142 7.07758C7.7929 6.90914 8.08829 6.81148 8.4179 6.81023H11.7504V7.29C11.7504 8.19086 12.4804 8.92086 13.3825 8.92086H26.6186C27.5195 8.92086 28.2495 8.19086 28.2495 7.29V6.81023H31.582C31.8017 6.81023 32.0056 6.85422 32.1924 6.93352C32.4719 7.0507 32.7136 7.25094 32.8833 7.50234C33.053 7.75375 33.1506 8.04922 33.1506 8.37883V36.1304Z" fill="#19A78E"/>
<path id="Vector_2" d="M14.6692 13.3337H12.1985V15.8044H14.6692V13.3337Z" fill="#19A78E"/>
<path id="Vector_3" d="M27.8027 13.3337H17.6184V15.8044H27.8027V13.3337Z" fill="#19A78E"/>
<path id="Vector_4" d="M14.6692 20.6348H12.1985V23.1055H14.6692V20.6348Z" fill="#19A78E"/>
<path id="Vector_5" d="M27.8027 20.6348H17.6184V23.1055H27.8027V20.6348Z" fill="#19A78E"/>
<path id="Vector_6" d="M14.6692 27.937H12.1985V30.4077H14.6692V27.937Z" fill="#19A78E"/>
<path id="Vector_7" d="M27.8027 27.937H17.6184V30.4077H27.8027V27.937Z" fill="#19A78E"/>
</g>
</g>
</svg>
