<svg width="40" height="40" viewBox="0 0 40 40" fill="none" xmlns="http://www.w3.org/2000/svg">
<g id="doctor 1">
<g id="Group">
<path id="Vector" d="M35.3943 33.5755C35.2368 32.9883 35.0158 32.4622 34.7424 31.9934C34.2651 31.1719 33.6304 30.5323 32.9308 30.0256C32.4071 29.6435 31.8456 29.3347 31.2768 29.0673C30.4211 28.667 29.5482 28.3605 28.7414 28.0615C27.9357 27.7661 27.1971 27.4743 26.6246 27.1362C26.4159 27.0116 26.2267 26.8823 26.0643 26.748C25.8189 26.5429 25.6297 26.328 25.4918 26.0839C25.3539 25.8422 25.2623 25.5688 25.2257 25.227C25.2013 24.9828 25.1904 24.7545 25.1904 24.536C25.1904 23.8915 25.2856 23.3299 25.4064 22.7611C25.7678 22.3534 26.0974 21.8687 26.4086 21.2889C26.7236 20.7054 27.019 20.0242 27.3156 19.2162C27.5048 19.1307 27.6964 19.027 27.8844 18.9013C28.3093 18.6156 28.7145 18.2152 29.0502 17.683C29.3883 17.1507 29.6593 16.4891 29.8425 15.6737C29.8937 15.4466 29.9193 15.222 29.9193 14.9998C29.9193 14.5372 29.8095 14.0965 29.6264 13.701C29.4994 13.4276 29.3358 13.1761 29.1479 12.9491C29.2443 12.5926 29.3614 12.1141 29.4653 11.5526C29.6093 10.7738 29.7289 9.83992 29.7289 8.85727C29.7289 8.2225 29.6789 7.56695 29.5495 6.92C29.4531 6.43539 29.3114 5.95445 29.11 5.49297C28.8097 4.79961 28.3739 4.14773 27.7648 3.61063C27.2021 3.11133 26.4965 2.71461 25.6457 2.45828C25.2856 2.02859 24.9132 1.66234 24.5287 1.35719C23.8818 0.839609 23.2006 0.495391 22.5048 0.285391C21.8115 0.0757031 21.1071 0 20.4064 0C20.0366 0 19.6667 0.0219531 19.2968 0.05375C18.9501 0.0854688 18.6608 0.122109 18.4032 0.164844C18.0187 0.229531 17.7014 0.315 17.3937 0.422422C17.0849 0.528594 16.787 0.651953 16.3989 0.805703C16.2511 0.863047 16.0571 0.949766 15.8227 1.06695C15.4138 1.27328 14.8889 1.57719 14.3261 1.99711C13.4814 2.62695 12.5512 3.51562 11.8237 4.71922C11.4611 5.32227 11.1499 6.00094 10.9326 6.76266C10.7129 7.52312 10.5859 8.36422 10.5859 9.28344C10.5859 9.85594 10.6347 10.4614 10.7421 11.0938C10.7421 11.1402 10.7446 11.1804 10.7471 11.2231C10.752 11.3025 10.7593 11.3843 10.7679 11.4697C10.7813 11.5966 10.7959 11.726 10.8082 11.8359C10.8131 11.8909 10.8179 11.9397 10.8204 11.9776C10.8228 11.9971 10.824 12.013 10.824 12.024L10.8253 12.0374V12.0411V12.1144L10.9803 12.8029C10.7569 13.047 10.564 13.3205 10.4139 13.6195C10.2051 14.0358 10.0806 14.5045 10.0818 15.0026C10.0806 15.2223 10.1063 15.447 10.1575 15.674C10.2808 16.2184 10.442 16.6945 10.6348 17.1083C10.9254 17.7296 11.2928 18.2142 11.7005 18.5768C12.0154 18.86 12.3524 19.0651 12.6856 19.2189C12.9822 20.0234 13.2789 20.7045 13.5914 21.2868C13.9039 21.8679 14.2322 22.3512 14.5936 22.759C14.7157 23.3303 14.8108 23.8918 14.8108 24.5363C14.8108 24.7561 14.7998 24.9831 14.7742 25.2273C14.7497 25.4616 14.6973 25.6643 14.624 25.8474C14.5129 26.1209 14.3506 26.3528 14.1296 26.5725C13.9099 26.7898 13.6292 26.9937 13.2959 27.1829C12.9578 27.3734 12.5671 27.5516 12.1411 27.7237C11.3965 28.0252 10.5469 28.3109 9.68504 28.6551C9.03926 28.9127 8.38621 29.2056 7.76121 29.573C7.29371 29.8489 6.84324 30.1663 6.43066 30.5448C5.81051 31.1136 5.2759 31.8204 4.90723 32.6956C4.53613 33.5721 4.33105 34.6097 4.33105 35.8341C4.33105 36.0062 4.3677 36.1722 4.42629 36.3236C4.48246 36.4664 4.55816 36.597 4.64848 36.7216C4.81941 36.9535 5.0391 37.1598 5.30887 37.36C5.78004 37.7079 6.40871 38.0351 7.22168 38.3415C8.43871 38.8017 10.072 39.2119 12.1826 39.5134C14.2932 39.812 16.8811 40 20 40C22.705 40 25.0085 39.8596 26.9494 39.6265C28.4045 39.452 29.6557 39.2261 30.7177 38.9661C31.5136 38.772 32.2033 38.5596 32.7965 38.335C33.2409 38.1666 33.629 37.9908 33.9671 37.8101C34.2211 37.6758 34.4457 37.5366 34.6446 37.3938C34.9413 37.179 35.1805 36.9556 35.3625 36.7041C35.4528 36.5796 35.5272 36.4453 35.5822 36.2988C35.6371 36.1548 35.6689 35.9961 35.6689 35.8337C35.6689 34.9952 35.5737 34.2456 35.3943 33.5755ZM25.5566 28.0005L21.6454 34.1064L21.2108 31.1096L22.3193 29.9341L21.6003 28.7377L24.6337 27.1423C24.7179 27.2497 24.8071 27.3534 24.9011 27.4499C25.1013 27.6562 25.3222 27.837 25.5566 28.0005ZM14.7424 20.669C14.436 20.1002 14.1308 19.3897 13.8183 18.5059L13.7157 18.2177L13.4276 18.1103C13.2274 18.037 13.0333 17.943 12.8465 17.8173C12.5657 17.6281 12.2972 17.3705 12.0531 16.9848C11.8089 16.6003 11.588 16.084 11.4305 15.3857C11.4012 15.2538 11.3865 15.1269 11.3865 15.0024C11.3878 14.7229 11.4549 14.458 11.5818 14.2029C11.6868 13.9929 11.8345 13.794 12.0115 13.6133C12.3118 14.0674 12.5596 14.4263 12.65 14.5166C12.9442 14.8096 12.9857 14.1175 12.8465 13.3398C12.5877 11.9116 13.2823 12.5573 15.0462 9.12844C18.5716 9.91211 24.7337 6.16453 24.7337 6.16453C24.7337 6.16453 24.8082 7.87352 25.9837 9.44094C27.0996 10.929 27.7343 14.419 27.7343 14.419C27.7343 14.419 27.8857 14.1309 28.1115 13.7452C28.247 13.9038 28.3593 14.0748 28.4423 14.253C28.5534 14.491 28.6132 14.7413 28.6132 15.0001C28.6132 15.1246 28.5986 15.254 28.5693 15.3859C28.4643 15.8509 28.3312 16.2355 28.1823 16.5553C27.9589 17.0314 27.7001 17.361 27.4316 17.6027C27.1606 17.8444 26.8737 18.0006 26.5746 18.1105L26.2865 18.2155L26.1839 18.506C25.8702 19.3898 25.565 20.1002 25.2586 20.6703C24.9522 21.2404 24.6471 21.6677 24.3309 22.0021L24.2064 22.134L24.1673 22.3122C24.0245 22.9641 23.8841 23.6843 23.8841 24.5363C23.8841 24.8 23.8975 25.0734 23.9268 25.3616C23.9622 25.7009 24.0392 26.0183 24.1551 26.3112C24.1612 26.3259 24.1673 26.3381 24.1734 26.3527L20.205 28.4375L15.8081 26.3989C15.9436 26.0815 16.0351 25.7348 16.073 25.3613C16.1036 25.0732 16.1157 24.7998 16.1157 24.5361C16.117 23.6841 15.9754 22.9614 15.8325 22.3095L15.7947 22.1338L15.669 22.0019C15.3539 21.6663 15.0475 21.239 14.7424 20.669ZM14.707 27.8052C14.9353 27.622 15.1477 27.4158 15.3332 27.185L18.6865 28.7414L17.97 29.9341L19.0796 31.1096L18.6694 33.9319L14.3908 28.0371C14.4995 27.9627 14.6045 27.8858 14.707 27.8052ZM34.3298 35.9009C34.2858 35.9741 34.1833 36.0962 34.0112 36.2353C33.8598 36.3574 33.6584 36.4916 33.4033 36.6309C32.9578 36.875 32.3523 37.1302 31.5845 37.3706C30.4309 37.7344 28.91 38.0664 26.9897 38.3057C25.0707 38.545 22.7527 38.6939 20 38.6939C17.3413 38.6939 15.0878 38.5548 13.2068 38.3302C11.7956 38.1605 10.5957 37.942 9.59223 37.6978C8.84027 37.5147 8.20059 37.3145 7.66715 37.1131C7.26676 36.9605 6.92738 36.8067 6.64785 36.659C6.43785 36.5466 6.26207 36.4356 6.11809 36.333C5.90449 36.1792 5.76652 36.0401 5.69941 35.9437C5.6652 35.8961 5.64816 35.8619 5.64082 35.8423C5.6384 35.835 5.63715 35.8302 5.63715 35.8289C5.63715 35.0977 5.72019 34.4727 5.86301 33.9283C5.98871 33.4522 6.16207 33.0396 6.37207 32.6746C6.74074 32.0362 7.2241 31.5333 7.79785 31.1109C8.22879 30.7934 8.70848 30.5212 9.21879 30.2784C9.98293 29.9146 10.8106 29.6191 11.6236 29.3201C12.3071 29.0674 12.9797 28.8135 13.5986 28.501L20.3564 37.8125L26.3428 28.4692C26.6418 28.623 26.9532 28.7646 27.2729 28.8965C28.0761 29.2261 28.9318 29.5105 29.7571 29.8389C30.376 30.083 30.979 30.3504 31.5259 30.669C31.9373 30.9083 32.3182 31.1744 32.6563 31.4808C33.1665 31.941 33.5816 32.4854 33.8819 33.1837C34.1798 33.882 34.3629 34.7388 34.3629 35.8302C34.3615 35.835 34.353 35.8618 34.3298 35.9009Z" fill="#19A78E"/>
<path id="Vector_2" d="M30.1172 35.0928H24.8926V36.0084H30.1172V35.0928Z" fill="#19A78E"/>
</g>
</g>
</svg>
