<svg width="40" height="40" viewBox="0 0 40 40" fill="none" xmlns="http://www.w3.org/2000/svg">
<g id="SNS&#228;&#186;&#186;&#231;&#137;&#169;&#227;&#130;&#162;&#227;&#130;&#164;&#227;&#130;&#179;&#227;&#131;&#179; 3 1">
<g id="Group">
<path id="Vector" d="M11.0563 20.19C14.3854 20.19 17.0937 17.4817 17.0937 14.1527C17.0937 10.8242 14.3854 8.11594 11.0563 8.11594C7.72788 8.11594 5.02014 10.8243 5.02014 14.1527C5.02014 17.4817 7.72788 20.19 11.0563 20.19ZM11.0563 10.0015C13.3458 10.0015 15.2081 11.8638 15.2081 14.1527C15.2081 16.4421 13.3458 18.3045 11.0563 18.3045C8.76749 18.3045 6.90569 16.4422 6.90569 14.1527C6.90569 11.8638 8.76749 10.0015 11.0563 10.0015Z" fill="#19A78E"/>
<path id="Vector_2" d="M26.0888 16.1097C30.5302 16.1097 34.144 12.4959 34.144 8.05453C34.144 3.6132 30.5302 0 26.0888 0C21.6476 0 18.0343 3.6132 18.0343 8.05453C18.0343 12.4959 21.6476 16.1097 26.0888 16.1097ZM26.0888 1.88555C29.4906 1.88555 32.2584 4.65289 32.2584 8.05461C32.2584 11.4563 29.4906 14.2242 26.0888 14.2242C22.6871 14.2242 19.9198 11.4564 19.9198 8.05461C19.9198 4.65281 22.6872 1.88555 26.0888 1.88555Z" fill="#19A78E"/>
<path id="Vector_3" d="M15.5721 40H36.6057L36.6028 24.7159C36.0214 21.9993 32.6523 17.6897 26.0889 17.6897C20.822 17.6897 17.6162 20.4653 16.2514 22.9794L16.1924 22.9347C15.2112 22.1953 13.5264 21.3137 11.0433 21.3137C8.40527 21.3137 6.64722 22.3127 5.63738 23.1504C5.04285 23.6419 4.54003 24.2084 4.14261 24.8358C3.7798 25.4107 3.53496 25.9838 3.41527 26.5391L3.39441 26.6493V37.4634H15.2105V35.5777H5.27988L5.27628 26.8702C5.3216 26.6856 5.44128 26.3073 5.73566 25.8438C6.05261 25.3427 6.63824 24.626 7.62957 24.0553C8.61605 23.4876 9.76886 23.1999 11.0563 23.1992C12.6124 23.201 13.96 23.6199 15.061 24.4426L15.1587 24.5152L16.1226 23.2302C15.8593 23.7599 15.6717 24.274 15.5721 24.7417V40ZM26.0889 19.5752C31.3345 19.5752 34.1696 22.8817 34.7201 24.9341V38.1145H17.4576L17.4535 24.9656C18.0081 22.8817 20.8433 19.5752 26.0889 19.5752Z" fill="#19A78E"/>
</g>
</g>
</svg>
