<svg width="40" height="40" viewBox="0 0 40 40" fill="none" xmlns="http://www.w3.org/2000/svg">
<g id="&#230;&#149;&#145;&#230;&#128;&#165;&#232;&#187;&#138;&#227;&#129;&#174;&#227;&#131;&#149;&#227;&#131;&#170;&#227;&#131;&#188;&#227;&#130;&#162;&#227;&#130;&#164;&#227;&#130;&#179;&#227;&#131;&#179;&#227;&#129;&#157;&#227;&#129;&#174;2 1">
<g id="Group">
<path id="Vector" d="M39.9869 6.14352L9.6875 6.1486L0 19.5902L0.00546875 27.9172L1.99766 29.3785L2.14297 29.4793L6.20922 29.4671C6.44281 31.9693 8.5175 33.8565 11.0354 33.8565C13.5533 33.8565 15.6283 31.9693 15.8488 29.4792L29.2563 29.467C29.4864 31.9692 31.5598 33.8564 34.0793 33.8564C36.5972 33.8564 38.6722 31.9692 38.8927 29.4792L40 29.4658V9.87891L39.9869 6.14352ZM11.0353 31.2058C9.82484 31.2058 8.84031 30.2209 8.84031 29.0102C8.84031 27.7981 9.82484 26.812 11.0353 26.812C12.2477 26.812 13.2338 27.7981 13.2338 29.0102C13.2338 30.2209 12.2477 31.2058 11.0353 31.2058ZM4.52891 19.5978L9.5218 12.5495L17.549 12.536L17.5621 21.6809L4.53148 21.6937L4.52891 19.5978ZM28.7662 17.0566L29.8127 16.4371L30.3441 16.1306L30.3377 16.1267L30.3505 16.1191L28.7854 15.2305L28.7709 15.2221L30.0459 12.9881L31.1103 13.5877L31.6369 13.8913V13.884L31.65 13.8913L31.6369 12.0752L34.2088 12.0617L34.222 13.2994V13.8913L34.2282 13.8878L34.2284 13.9028L35.7952 12.9832L37.0924 15.2041L36.0437 15.8249L35.5145 16.1306L35.521 16.1341L35.5082 16.1417L37.0874 17.0386H37.0876L35.8128 19.2727L34.7457 18.6717L34.222 18.3691V18.3767L34.2088 18.3691L34.222 20.1859L31.65 20.1987V18.3467L30.0636 19.2774L28.7864 17.091L28.7662 17.0566ZM34.0792 26.812C35.2916 26.812 36.2778 27.7981 36.2778 29.0102C36.2778 30.2209 35.2916 31.2058 34.0792 31.2058C32.8687 31.2058 31.8839 30.2209 31.8839 29.0102C31.8838 27.7981 32.8687 26.812 34.0792 26.812Z" fill="#19A78E"/>
</g>
</g>
</svg>
