<svg width="26" height="27" viewBox="0 0 26 27" fill="none" xmlns="http://www.w3.org/2000/svg">
<g id="&#229;&#143;&#151;&#232;&#169;&#177;&#229;&#153;&#168;&#227;&#129;&#174;&#227;&#130;&#162;&#227;&#130;&#164;&#227;&#130;&#179;&#227;&#131;&#179; 1" clip-path="url(#clip0_14_310)">
<g id="Group">
<path id="Vector" d="M24.2758 20.8305C23.2929 19.8718 20.14 17.914 19.3443 17.6494C18.5491 17.3842 17.4989 18.1004 17.1433 19.0742C16.7873 20.048 16.2877 19.9079 16.2877 19.9079C16.2877 19.9079 14.3965 18.9988 11.1332 15.0309C7.86987 11.063 7.3161 8.99896 7.3161 8.99896C7.3161 8.99896 7.26614 8.47028 8.26378 8.27578C9.25986 8.08174 10.1271 7.14302 10.0066 6.29475C9.88782 5.44652 8.53887 1.93025 7.78365 0.775903C7.02691 -0.377871 5.33975 0.031749 4.95584 0.26778C4.57138 0.503811 0.550265 2.64537 1.30762 7.31812C2.06598 11.9909 4.21535 15.8672 6.68555 18.8711C9.15576 21.8748 12.5195 24.7035 16.8856 26.261C21.2507 27.8184 23.9928 24.1205 24.2847 23.7724C24.5766 23.4248 25.2566 21.7903 24.2758 20.8305Z" fill="#FBB731"/>
</g>
</g>
<defs>
<clipPath id="clip0_14_310">
<rect width="26" height="26.642" fill="white"/>
</clipPath>
</defs>
</svg>
